#!OML:ASF H:\Male1\Project 1\Capture day 1\Session 1\Male1.ASF
:FULLY-SPECIFIED
:DEGREES
212
root -3.11946 15.29 -1.88085 0.0769977 -21.423 -2.95344
lowerback 5.53064 5.21677 -0.572938
upperback 4.37296 6.91881 -4.24361
thorax 1.90012 3.50658 -4.30309
lowerneck -5.72758 11.2784 13.3415
upperneck 32.2071 15.4367 -4.62651
head 13.2335 7.86092 -1.90332
rclavicle -2.8625e-014 -1.59028e-015
rhumerus -42.0678 -0.831722 -85.1469
rradius 36.3671
rwrist -19.4921
rhand -17.6569 2.04566
rfingers 7.12502
rthumb 8.60142 -27.7591
lclavicle -2.8625e-014 -1.59028e-015
lhumerus -39.5163 -5.90472 79.0132
lradius 29.6936
lwrist 7.7983
lhand -24.0753 15.7978
lfingers 7.12502
lthumb 2.40461 45.764
rfemur -1.82745 -21.8417 30.1003
rtibia 51.1291
rfoot -11.3993 3.51313
rtoes -45.9416
lfemur -15.9659 -10.4063 -23.2561
ltibia 31.5562
lfoot -21.1454 15.336
ltoes 2.35079
213
root -2.92196 15.2789 -1.89371 0.655253 -21.7606 -3.42435
lowerback 5.21326 5.30242 -0.18673
upperback 4.15496 7.05254 -4.16382
thorax 1.89545 3.58125 -4.41492
lowerneck -5.8888 11.2663 13.4416
upperneck 32.502 15.4359 -4.71737
head 13.4151 7.85541 -1.93876
rclavicle -3.49861e-014 -9.54166e-015
rhumerus -41.717 -0.581285 -85.2382
rradius 36.2665
rwrist -19.9622
rhand -17.9781 1.95753
rfingers 7.12502
rthumb 8.29149 -27.8598
lclavicle -3.49861e-014 -9.54166e-015
lhumerus -39.8253 -5.6507 79.2314
lradius 29.4599
lwrist 7.46741
lhand -23.989 15.5112
lfingers 7.12502
lthumb 2.48801 45.4764
rfemur -1.35246 -22.7415 31.8509
rtibia 49.906
rfoot -10.036 5.08163
rtoes -46.8975
lfemur -17.1641 -9.14259 -23.2931
ltibia 32.2033
lfoot -20.223 14.2616
ltoes 1.90753
214
root -2.75515 15.2492 -1.90037 1.00901 -22.215 -5.58425
lowerback 5.48822 5.39611 1.56164
upperback 4.13766 7.24127 -3.55335
thorax 1.8788 3.71248 -4.77648
lowerneck -5.91825 11.2216 13.3813
upperneck 32.691 15.3647 -4.63186
head 13.4807 7.82571 -1.90542
rclavicle 9.58142e-014 -2.06736e-014
rhumerus -41.4451 -0.29066 -85.4775
rradius 36.1591
rwrist -20.6821
rhand -18.5507 2.03305
rfingers 7.12502
rthumb 7.7388 -27.8053
lclavicle 9.58142e-014 -2.06736e-014
lhumerus -40.2602 -5.08644 79.291
lradius 29.3385
lwrist 6.9638
lhand -23.9003 15.4014
lfingers 7.12502
lthumb 2.57369 45.3656
rfemur 0.40475 -23.7437 34.7349
rtibia 48.2982
rfoot -8.47254 5.75176
rtoes -44.3069
lfemur -17.4772 -7.4128 -21.6394
ltibia 32.9136
lfoot -19.4199 12.6472
ltoes 2.07542
215
root -2.55613 15.2186 -1.91525 1.24518 -22.9216 -6.53286
lowerback 5.71588 5.68112 2.82959
upperback 3.98985 7.67628 -3.51614
thorax 1.81024 3.9609 -5.47431
lowerneck -6.00059 11.0925 13.474
upperneck 32.8529 15.0876 -4.40448
head 13.5258 7.74025 -1.8717
rclavicle -3.89618e-014 9.22361e-014
rhumerus -41.27 -0.579399 -85.7606
rradius 36.1631
rwrist -21.3006
rhand -18.9987 2.04039
rfingers 7.12502
rthumb 7.30643 -27.8135
lclavicle -3.89618e-014 9.22361e-014
lhumerus -40.6009 -5.17417 79.4301
lradius 29.2741
lwrist 6.8385
lhand -23.9407 15.5349
lfingers 7.12502
lthumb 2.53467 45.4996
rfemur 1.77538 -24.3459 36.203
rtibia 46.5897
rfoot -6.43371 5.64548
rtoes -43.767
lfemur -18.1514 -5.81919 -21.2698
ltibia 33.7305
lfoot -19.0961 11.1291
ltoes 4.3478
216
root -2.34634 15.1902 -1.93153 1.36216 -23.467 -6.45904
lowerback 5.62692 5.89521 3.2182
upperback 3.88133 7.97976 -3.67512
thorax 1.86262 4.12616 -5.85213
lowerneck -6.1302 10.9953 13.5767
upperneck 32.9798 14.9317 -4.43689
head 13.6054 7.67795 -1.91657
rclavicle 7.15625e-015 3.18055e-015
rhumerus -40.9323 -0.709116 -85.9173
rradius 36.1865
rwrist -21.6144
rhand -19.2909 1.82682
rfingers 7.12502
rthumb 7.02436 -28.0366
lclavicle 7.15625e-015 3.18055e-015
lhumerus -40.8835 -5.14419 79.7305
lradius 29.2338
lwrist 6.78169
lhand -23.8826 15.6058
lfingers 7.12502
lthumb 2.59077 45.5698
rfemur 2.80389 -24.5146 36.7172
rtibia 44.5931
rfoot -3.74354 4.66785
rtoes -40.3269
lfemur -19.0995 -4.51674 -22.021
ltibia 34.5121
lfoot -18.7722 10.0668
ltoes 6.4228
